<?xml version="1.0" encoding="UTF-8" standalone="no"?>
<svg
   xmlns:dc="http://purl.org/dc/elements/1.1/"
   xmlns:cc="http://creativecommons.org/ns#"
   xmlns:rdf="http://www.w3.org/1999/02/22-rdf-syntax-ns#"
   xmlns:svg="http://www.w3.org/2000/svg"
   xmlns="http://www.w3.org/2000/svg"
   xmlns:sodipodi="http://sodipodi.sourceforge.net/DTD/sodipodi-0.dtd"
   xmlns:inkscape="http://www.inkscape.org/namespaces/inkscape"
   enable-background="new 0 0 24 24"
   id="Layer_1"
   version="1.1"
   viewBox="0 0 24 24.000031"
   xml:space="preserve"
   sodipodi:docname="git.svg"
   width="24"
   height="24.000031"
   inkscape:version="0.92.4 (5da689c313, 2019-01-14)"><metadata
     id="metadata2732"><rdf:RDF><cc:Work
         rdf:about=""><dc:format>image/svg+xml</dc:format><dc:type
           rdf:resource="http://purl.org/dc/dcmitype/StillImage" /></cc:Work></rdf:RDF></metadata><defs
     id="defs2730" /><sodipodi:namedview
     pagecolor="#ffffff"
     bordercolor="#666666"
     borderopacity="1"
     objecttolerance="10"
     gridtolerance="10"
     guidetolerance="10"
     inkscape:pageopacity="0"
     inkscape:pageshadow="2"
     inkscape:window-width="1920"
     inkscape:window-height="1017"
     id="namedview2728"
     showgrid="false"
     inkscape:zoom="9.8333333"
     inkscape:cx="12"
     inkscape:cy="12.000015"
     inkscape:window-x="-8"
     inkscape:window-y="-8"
     inkscape:window-maximized="1"
     inkscape:current-layer="Layer_1" /><g
     id="g2695"
     transform="translate(0,1.5275e-5)"><path
       d="m 23.561523,10.932022 c -9.76e-4,0 -9.76e-4,-4.88e-4 -9.76e-4,-4.88e-4 L 13.061523,0.4256744 c -0.566406,-0.567749 -1.557617,-0.5672607 -2.12207,-4.883e-4 L 0.4384766,10.932022 C 0.15625,11.215897 0,11.592606 0,11.992752 c 0,0.400635 0.15625,0.777771 0.4394531,1.061157 l 10.4990239,10.50586 c 0.283203,0.283874 0.660156,0.440246 1.061523,0.440246 0.401367,0 0.77832,-0.156372 1.060547,-0.439758 l 10.5,-10.506348 C 23.84375,12.770523 24,12.393387 24,11.992752 c 0,-0.400146 -0.15625,-0.776855 -0.438477,-1.06073 z"
       id="path2673"
       inkscape:connector-curvature="0"
       style="fill:#ef473b" /><path
       d="M 23.680969,12.689896 13.071594,23.305679 C 12.786438,23.591995 12.405518,23.750015 12,23.750015 c -0.405518,0 -0.786438,-0.15802 -1.072571,-0.444824 L 0.3190308,12.689896 c -0.1239624,-0.124085 -0.218689,-0.268372 -0.2921143,-0.422242 0.0545654,0.29596 0.1953125,0.568909 0.4125366,0.786255 l 10.4990239,10.50586 c 0.283203,0.283874 0.660156,0.440246 1.061523,0.440246 0.401367,0 0.77832,-0.156372 1.060547,-0.439758 l 10.5,-10.506348 c 0.217224,-0.217346 0.358032,-0.490295 0.412598,-0.786255 -0.07343,0.15387 -0.168213,0.298157 -0.292176,0.422242 z"
       id="path2675"
       inkscape:connector-curvature="0"
       style="opacity:0.1;fill:#010101" /><path
       d="m 17,10.000015 c -0.374878,0 -0.721985,0.110047 -1.022217,0.290283 L 13.709717,8.0222321 C 13.889893,7.7220612 14,7.3749542 14,7.0000153 c 0,-1.1030273 -0.897461,-2 -2,-2 -0.369873,0 -0.71228,0.1077881 -1.009827,0.2835693 L 8.536438,2.8295441 7.8295898,3.5367584 10.283264,5.9907379 C 10.107727,6.2881012 10,6.6303253 10,7.0000153 c 0,0.9293213 0.640015,1.7053833 1.5,1.9289551 V 15.07106 c -0.859985,0.223572 -1.5,0.999634 -1.5,1.928955 0,1.103028 0.897461,2 2,2 1.102539,0 2,-0.896972 2,-2 0,-0.929321 -0.640015,-1.705383 -1.5,-1.928955 V 8.9289703 c 0.176758,-0.04596 0.342529,-0.1158447 0.496887,-0.2055054 L 15.27655,11.003128 C 15.105347,11.297806 15,11.63533 15,12.000015 c 0,1.103028 0.897461,2 2,2 1.102539,0 2,-0.896972 2,-2 0,-1.103027 -0.897461,-2 -2,-2 z"
       id="path2677"
       inkscape:connector-curvature="0"
       style="fill:#ffffff" /><path
       d="M 0.4384766,11.182022 10.939453,0.6751862 c 0.564453,-0.5667725 1.555664,-0.5672607 2.12207,4.883e-4 L 23.560547,11.181534 c 0,0 0,4.88e-4 9.76e-4,4.88e-4 0.25232,0.253784 0.396973,0.583252 0.42627,0.935791 C 23.991272,12.075943 24,12.035232 24,11.992752 c 0,-0.400146 -0.15625,-0.776855 -0.438477,-1.06073 -9.76e-4,0 -9.76e-4,-4.88e-4 -9.76e-4,-4.88e-4 L 13.061523,0.4256744 c -0.566406,-0.567749 -1.557617,-0.5672607 -2.12207,-4.883e-4 L 0.4384766,10.932022 C 0.15625,11.215897 0,11.592606 0,11.992752 c 0,0.04242 0.008728,0.08313 0.012207,0.124939 0.0293579,-0.352539 0.1740113,-0.681946 0.4262696,-0.935669 z"
       id="path2679"
       inkscape:connector-curvature="0"
       style="opacity:0.2;fill:#ffffff" /><linearGradient
       gradientUnits="userSpaceOnUse"
       id="SVGID_1_"
       x1="9.6692657"
       x2="18.306595"
       y1="9.6760864"
       y2="18.313416"><stop
         offset="0"
         style="stop-color:#010101;stop-opacity:0.1"
         id="stop2681" /><stop
         offset="1"
         style="stop-color:#010101;stop-opacity:0"
         id="stop2683" /></linearGradient><path
       d="M 18.548828,10.750382 C 18.826538,11.093826 19,11.524857 19,12.000015 c 0,1.103028 -0.897461,2 -2,2 -1.102539,0 -2,-0.896972 -2,-2 0,-0.364685 0.105347,-0.702209 0.27655,-0.996887 L 12.996887,8.723465 C 12.842529,8.8131256 12.676758,8.8830109 12.5,8.9289703 V 15.07106 c 0.859985,0.223572 1.5,0.999634 1.5,1.928955 0,1.103027 -0.897461,2 -2,2 -0.511475,0 -0.973816,-0.198669 -1.327881,-0.515747 l 3.731812,3.731812 7.802917,-7.807679 z M 13.709717,8.0222321 15.977783,10.290299 C 16.278015,10.110062 16.625122,10.000015 17,10.000015 c 0.475098,0 0.90625,0.173523 1.249817,0.451355 l -4.677673,-4.6777341 -0.0024,0.00201 C 13.835144,6.1150665 14,6.5366364 14,7.0000153 14,7.3749542 13.889893,7.7220612 13.709717,8.0222321 Z"
       id="path2686"
       inkscape:connector-curvature="0"
       style="fill:url(#SVGID_1_)" /><linearGradient
       gradientUnits="userSpaceOnUse"
       id="SVGID_2_"
       x1="2.0138185"
       x2="21.983366"
       y1="7.3399205"
       y2="16.651873"><stop
         offset="0"
         style="stop-color:#FFFFFF;stop-opacity:0.2"
         id="stop2688" /><stop
         offset="1"
         style="stop-color:#FFFFFF;stop-opacity:0"
         id="stop2690" /></linearGradient><path
       d="m 23.561523,10.932022 c -9.76e-4,0 -9.76e-4,-4.88e-4 -9.76e-4,-4.88e-4 L 13.061523,0.4256744 c -0.566406,-0.567749 -1.557617,-0.5672607 -2.12207,-4.883e-4 L 0.4384766,10.932022 C 0.15625,11.215897 0,11.592606 0,11.992752 c 0,0.400635 0.15625,0.777771 0.4394531,1.061157 l 10.4990239,10.50586 c 0.283203,0.283874 0.660156,0.440246 1.061523,0.440246 0.401367,0 0.77832,-0.156372 1.060547,-0.439758 l 10.5,-10.506348 C 23.84375,12.770523 24,12.393387 24,11.992752 c 0,-0.400146 -0.15625,-0.776855 -0.438477,-1.06073 z"
       id="path2693"
       inkscape:connector-curvature="0"
       style="fill:url(#SVGID_2_)" /></g><g
     id="g2697"
     transform="translate(0,1.5275e-5)" /><g
     id="g2699"
     transform="translate(0,1.5275e-5)" /><g
     id="g2701"
     transform="translate(0,1.5275e-5)" /><g
     id="g2703"
     transform="translate(0,1.5275e-5)" /><g
     id="g2705"
     transform="translate(0,1.5275e-5)" /><g
     id="g2707"
     transform="translate(0,1.5275e-5)" /><g
     id="g2709"
     transform="translate(0,1.5275e-5)" /><g
     id="g2711"
     transform="translate(0,1.5275e-5)" /><g
     id="g2713"
     transform="translate(0,1.5275e-5)" /><g
     id="g2715"
     transform="translate(0,1.5275e-5)" /><g
     id="g2717"
     transform="translate(0,1.5275e-5)" /><g
     id="g2719"
     transform="translate(0,1.5275e-5)" /><g
     id="g2721"
     transform="translate(0,1.5275e-5)" /><g
     id="g2723"
     transform="translate(0,1.5275e-5)" /><g
     id="g2725"
     transform="translate(0,1.5275e-5)" /></svg>