<?xml version="1.0" encoding="UTF-8" standalone="no"?>
<svg
   xmlns:dc="http://purl.org/dc/elements/1.1/"
   xmlns:cc="http://creativecommons.org/ns#"
   xmlns:rdf="http://www.w3.org/1999/02/22-rdf-syntax-ns#"
   xmlns:svg="http://www.w3.org/2000/svg"
   xmlns="http://www.w3.org/2000/svg"
   xmlns:sodipodi="http://sodipodi.sourceforge.net/DTD/sodipodi-0.dtd"
   xmlns:inkscape="http://www.inkscape.org/namespaces/inkscape"
   enable-background="new 0 0 504 504"
   id="Layer_1"
   version="1.1"
   viewBox="0 0 401.64865 401.64865"
   xml:space="preserve"
   sodipodi:docname="php.svg"
   width="401.64865"
   height="401.64865"
   inkscape:version="0.92.4 (5da689c313, 2019-01-14)"><metadata
     id="metadata1462"><rdf:RDF><cc:Work
         rdf:about=""><dc:format>image/svg+xml</dc:format><dc:type
           rdf:resource="http://purl.org/dc/dcmitype/StillImage" /></cc:Work></rdf:RDF></metadata><defs
     id="defs1460" /><sodipodi:namedview
     pagecolor="#ffffff"
     bordercolor="#666666"
     borderopacity="1"
     objecttolerance="10"
     gridtolerance="10"
     guidetolerance="10"
     inkscape:pageopacity="0"
     inkscape:pageshadow="2"
     inkscape:window-width="1920"
     inkscape:window-height="1017"
     id="namedview1458"
     showgrid="false"
     inkscape:zoom="0.46825397"
     inkscape:cx="195.02432"
     inkscape:cy="207.12432"
     inkscape:window-x="-8"
     inkscape:window-y="-8"
     inkscape:window-maximized="1"
     inkscape:current-layer="Layer_1" /><path
     d="m 401.52432,200.82432 c -9.2,58.5 -27.1,75.6 -58.8,114.9 -31.7,33.3 -77.3,88.9 -141.9,85.8 -58.5,-9.2 -75.6,-27.1 -114.900001,-58.8 -33.3,-31.7 -88.9,-77.3 -85.80000004,-141.9 9.20000004,-58.5 27.10000004,-75.6 58.80000004,-114.900001 31.7,-33.3 77.300001,-88.9 141.900001,-85.80000004 58.5,9.20000004 75.6,27.10000004 114.9,58.80000004 33.3,31.7 88.9,77.300001 85.8,141.900001 z"
     id="path1444"
     inkscape:connector-curvature="0"
     style="fill:#3765af" /><g
     id="Layer_2_1_"
     transform="translate(-56.975681,-57.475681)"><g
       id="g1454"><g
         id="g1452"><path
           d="m 179.3,235.2 c 7.9,0 12.8,1.3 15.4,4.3 2.6,2.6 2.9,7.9 1.6,14.4 -1.3,7.2 -3.9,12.4 -8.2,15.4 -3.9,2.9 -10.1,4.6 -18.3,4.6 h -12.4 l 7.5,-39.3 c 0,0.6 14.4,0.6 14.4,0.6 z m -49.7,78.5 h 20.3 l 4.6,-24.9 h 17.7 c 7.9,0 13.7,-0.7 19,-2.3 4.9,-1.6 9.5,-4.3 13.4,-8.2 3.3,-2.9 6.2,-6.9 8.5,-10.5 2,-3.6 3.6,-8.2 4.3,-12.4 2,-11.1 0.7,-19.6 -4.6,-25.8 -5.2,-6.2 -13.7,-9.2 -25.5,-9.2 H 148 Z"
           id="path1446"
           inkscape:connector-curvature="0"
           style="fill:#ffffff" /><path
           d="m 237.9,195.6 h 20.3 l -4.6,24.9 h 18 c 11.1,0 19.3,2 23.2,6.2 4.3,3.9 5.9,10.5 3.6,19.3 l -8.5,43.5 h -20.6 l 8.2,-41.2 c 1,-4.6 0.7,-7.9 -1,-9.5 -1.6,-1.6 -4.9,-2.6 -10.1,-2.6 h -16 l -10.5,53.3 h -20.3 z"
           id="path1448"
           inkscape:connector-curvature="0"
           style="fill:#ffffff" /><path
           d="m 343.2,235.2 c 7.9,0 12.8,1.3 15.4,4.3 2.6,2.6 2.9,7.9 1.6,14.4 -1.3,7.2 -3.9,12.4 -8.2,15.4 -3.9,2.9 -10.1,4.6 -18.3,4.6 h -12.4 l 7.5,-39.3 c 0.4,0.6 14.4,0.6 14.4,0.6 z m -49.4,78.5 h 20.3 l 4.6,-24.9 h 17.7 c 7.9,0 13.7,-0.7 19,-2.3 4.9,-1.6 9.5,-4.3 13.4,-8.2 3.3,-2.9 6.2,-6.9 8.5,-10.5 2,-3.6 3.6,-8.2 4.3,-12.4 2,-11.1 0.7,-19.6 -4.6,-25.8 -5.2,-6.2 -13.7,-9.2 -25.5,-9.2 h -39.3 z"
           id="path1450"
           inkscape:connector-curvature="0"
           style="fill:#ffffff" /></g></g></g></svg>